<mxfile host="app.diagrams.net" modified="2023-07-31T11:12:38.409Z" agent="Mozilla/5.0 (Windows NT 10.0; Win64; x64) AppleWebKit/537.36 (KHTML, like Gecko) Chrome/115.0.0.0 Safari/537.36" etag="S0gl28h1ddtAocB-14Ir" version="21.6.6" type="github">
  <diagram name="Page-1" id="03018318-947c-dd8e-b7a3-06fadd420f32">
    <mxGraphModel dx="1160" dy="731" grid="1" gridSize="10" guides="1" tooltips="1" connect="1" arrows="1" fold="1" page="1" pageScale="1" pageWidth="1100" pageHeight="850" background="#ffffff" math="0" shadow="0">
      <root>
        <mxCell id="0" />
        <mxCell id="1" parent="0" />
        <mxCell id="1ELsRt6wKmiNtFB0gURV-2" value="" style="rounded=0;whiteSpace=wrap;html=1;fillColor=#dae8fc;strokeColor=#6c8ebf;" vertex="1" parent="1">
          <mxGeometry x="7" y="10" width="1083" height="690" as="geometry" />
        </mxCell>
        <object label="" id="1ELsRt6wKmiNtFB0gURV-5">
          <mxCell style="rounded=1;whiteSpace=wrap;html=1;" vertex="1" parent="1">
            <mxGeometry x="20" y="20" width="1060" height="80" as="geometry" />
          </mxCell>
        </object>
        <mxCell id="1ELsRt6wKmiNtFB0gURV-6" value="" style="rounded=0;whiteSpace=wrap;html=1;" vertex="1" parent="1">
          <mxGeometry x="20" y="110" width="1060" height="520" as="geometry" />
        </mxCell>
        <mxCell id="1ELsRt6wKmiNtFB0gURV-8" value="" style="rounded=0;whiteSpace=wrap;html=1;" vertex="1" parent="1">
          <mxGeometry x="20" y="640" width="1060" height="50" as="geometry" />
        </mxCell>
        <mxCell id="1ELsRt6wKmiNtFB0gURV-9" value="" style="rounded=0;whiteSpace=wrap;html=1;" vertex="1" parent="1">
          <mxGeometry x="30" y="120" width="1040" height="40" as="geometry" />
        </mxCell>
        <mxCell id="1ELsRt6wKmiNtFB0gURV-11" value="" style="rounded=0;whiteSpace=wrap;html=1;" vertex="1" parent="1">
          <mxGeometry x="30" y="180" width="1040" height="440" as="geometry" />
        </mxCell>
        <mxCell id="1ELsRt6wKmiNtFB0gURV-13" value="" style="shape=partialRectangle;whiteSpace=wrap;html=1;top=0;bottom=0;fillColor=none;" vertex="1" parent="1">
          <mxGeometry x="920" y="180" width="150" height="440" as="geometry" />
        </mxCell>
        <mxCell id="1ELsRt6wKmiNtFB0gURV-14" value="" style="verticalLabelPosition=bottom;verticalAlign=top;html=1;shape=mxgraph.basic.rect;fillColor2=none;strokeWidth=1;size=20;indent=5;" vertex="1" parent="1">
          <mxGeometry x="920" y="180" width="150" height="50" as="geometry" />
        </mxCell>
        <mxCell id="1ELsRt6wKmiNtFB0gURV-17" value="操作" style="text;html=1;strokeColor=none;fillColor=none;align=center;verticalAlign=middle;whiteSpace=wrap;rounded=0;" vertex="1" parent="1">
          <mxGeometry x="980" y="190" width="60" height="30" as="geometry" />
        </mxCell>
        <mxCell id="1ELsRt6wKmiNtFB0gURV-18" value="列表数据" style="text;html=1;strokeColor=none;fillColor=none;align=center;verticalAlign=middle;whiteSpace=wrap;rounded=0;" vertex="1" parent="1">
          <mxGeometry x="40" y="250" width="60" height="50" as="geometry" />
        </mxCell>
        <mxCell id="1ELsRt6wKmiNtFB0gURV-19" value="分页" style="text;html=1;strokeColor=none;fillColor=none;align=center;verticalAlign=middle;whiteSpace=wrap;rounded=0;" vertex="1" parent="1">
          <mxGeometry x="500" y="650" width="60" height="30" as="geometry" />
        </mxCell>
        <mxCell id="1ELsRt6wKmiNtFB0gURV-20" value="查询项目" style="text;html=1;strokeColor=none;fillColor=none;align=center;verticalAlign=middle;whiteSpace=wrap;rounded=0;" vertex="1" parent="1">
          <mxGeometry x="660" y="45" width="60" height="30" as="geometry" />
        </mxCell>
        <mxCell id="1ELsRt6wKmiNtFB0gURV-21" value="工具栏" style="text;html=1;strokeColor=none;fillColor=none;align=center;verticalAlign=middle;whiteSpace=wrap;rounded=0;" vertex="1" parent="1">
          <mxGeometry x="50" y="125" width="60" height="30" as="geometry" />
        </mxCell>
        <mxCell id="1ELsRt6wKmiNtFB0gURV-22" value="表格列名称" style="shape=process;whiteSpace=wrap;html=1;backgroundOutline=1;" vertex="1" parent="1">
          <mxGeometry x="30" y="180" width="890" height="50" as="geometry" />
        </mxCell>
        <mxCell id="1ELsRt6wKmiNtFB0gURV-23" value="列表数据" style="text;html=1;strokeColor=none;fillColor=none;align=center;verticalAlign=middle;whiteSpace=wrap;rounded=0;" vertex="1" parent="1">
          <mxGeometry x="430" y="250" width="60" height="50" as="geometry" />
        </mxCell>
        <mxCell id="1ELsRt6wKmiNtFB0gURV-24" value="列表数据" style="text;html=1;strokeColor=none;fillColor=none;align=center;verticalAlign=middle;whiteSpace=wrap;rounded=0;" vertex="1" parent="1">
          <mxGeometry x="848" y="240" width="60" height="50" as="geometry" />
        </mxCell>
        <mxCell id="1ELsRt6wKmiNtFB0gURV-25" value="编辑" style="text;html=1;align=center;verticalAlign=middle;whiteSpace=wrap;rounded=0;fillColor=#d5e8d4;strokeColor=#82b366;" vertex="1" parent="1">
          <mxGeometry x="930" y="245" width="60" height="40" as="geometry" />
        </mxCell>
        <mxCell id="1ELsRt6wKmiNtFB0gURV-26" value="删除" style="text;html=1;align=center;verticalAlign=middle;whiteSpace=wrap;rounded=0;fillColor=#f8cecc;strokeColor=#b85450;" vertex="1" parent="1">
          <mxGeometry x="1000" y="245" width="60" height="40" as="geometry" />
        </mxCell>
        <mxCell id="1ELsRt6wKmiNtFB0gURV-28" value="&lt;h1&gt;&lt;span style=&quot;font-size: 12px; font-weight: 400;&quot;&gt;列1&lt;/span&gt;&lt;/h1&gt;" style="text;html=1;strokeColor=none;fillColor=none;spacing=5;spacingTop=-20;whiteSpace=wrap;overflow=hidden;rounded=0;labelPosition=center;verticalLabelPosition=middle;align=center;verticalAlign=middle;" vertex="1" parent="1">
          <mxGeometry x="48" y="182" width="50" height="40" as="geometry" />
        </mxCell>
        <mxCell id="1ELsRt6wKmiNtFB0gURV-29" value="&lt;h1&gt;&lt;span style=&quot;font-size: 12px; font-weight: 400;&quot;&gt;列3&lt;/span&gt;&lt;/h1&gt;" style="text;html=1;strokeColor=none;fillColor=none;spacing=5;spacingTop=-20;whiteSpace=wrap;overflow=hidden;rounded=0;labelPosition=center;verticalLabelPosition=middle;align=center;verticalAlign=middle;" vertex="1" parent="1">
          <mxGeometry x="848" y="184" width="50" height="40" as="geometry" />
        </mxCell>
      </root>
    </mxGraphModel>
  </diagram>
</mxfile>
